<svg xmlns="http://www.w3.org/2000/svg" xmlns:xlink="http://www.w3.org/1999/xlink" width="500" zoomAndPan="magnify" viewBox="0 0 375 374.999991" height="500" preserveAspectRatio="xMidYMid meet" version="1.0"><defs><clipPath id="c16c0efe6b"><path d="M 60.21875 60.21875 L 314.78125 60.21875 L 314.78125 314.78125 L 60.21875 314.78125 Z M 60.21875 60.21875 " clip-rule="nonzero"/></clipPath><clipPath id="2888e9cb14"><path d="M 187.5 60.21875 C 117.203125 60.21875 60.21875 117.203125 60.21875 187.5 C 60.21875 257.796875 117.203125 314.78125 187.5 314.78125 C 257.796875 314.78125 314.78125 257.796875 314.78125 187.5 C 314.78125 117.203125 257.796875 60.21875 187.5 60.21875 Z M 187.5 60.21875 " clip-rule="nonzero"/></clipPath><clipPath id="8ed4971c68"><path d="M 0.21875 0.21875 L 254.78125 0.21875 L 254.78125 254.78125 L 0.21875 254.78125 Z M 0.21875 0.21875 " clip-rule="nonzero"/></clipPath><clipPath id="228585793c"><path d="M 127.5 0.21875 C 57.203125 0.21875 0.21875 57.203125 0.21875 127.5 C 0.21875 197.796875 57.203125 254.78125 127.5 254.78125 C 197.796875 254.78125 254.78125 197.796875 254.78125 127.5 C 254.78125 57.203125 197.796875 0.21875 127.5 0.21875 Z M 127.5 0.21875 " clip-rule="nonzero"/></clipPath><clipPath id="340ae2ffd0"><rect x="0" width="255" y="0" height="255"/></clipPath><clipPath id="247080d62c"><path d="M 99.707031 86.148438 L 275 86.148438 L 275 288.648438 L 99.707031 288.648438 Z M 99.707031 86.148438 " clip-rule="nonzero"/></clipPath></defs><g clip-path="url(#c16c0efe6b)"><g clip-path="url(#2888e9cb14)"><g transform="matrix(1, 0, 0, 1, 60, 60)"><g clip-path="url(#340ae2ffd0)"><g clip-path="url(#8ed4971c68)"><g clip-path="url(#228585793c)"><path fill="#ff3131" d="M 0.21875 0.21875 L 254.78125 0.21875 L 254.78125 254.78125 L 0.21875 254.78125 Z M 0.21875 0.21875 " fill-opacity="1" fill-rule="nonzero"/></g></g></g></g></g></g><g clip-path="url(#247080d62c)"><path fill="#ffffff" d="M 260.996094 108.097656 L 231.78125 108.097656 L 231.78125 103.925781 C 231.78125 94.140625 223.824219 86.183594 214.039062 86.183594 L 160.730469 86.183594 C 150.945312 86.183594 142.984375 94.140625 142.984375 103.925781 L 142.984375 108.097656 L 113.769531 108.097656 C 106.117188 108.097656 99.886719 114.324219 99.886719 121.976562 L 99.886719 128.558594 C 99.886719 135.722656 105.34375 141.632812 112.316406 142.363281 L 126.613281 267.800781 C 127.976562 279.78125 138.097656 288.816406 150.15625 288.816406 L 224.609375 288.816406 C 236.667969 288.816406 246.789062 279.78125 248.152344 267.800781 L 262.449219 142.363281 C 269.421875 141.636719 274.878906 135.722656 274.878906 128.558594 L 274.878906 121.976562 C 274.878906 114.324219 268.648438 108.097656 260.996094 108.097656 Z M 151.996094 103.925781 C 151.996094 99.105469 155.914062 95.191406 160.730469 95.191406 L 214.042969 95.191406 C 218.859375 95.191406 222.777344 99.105469 222.777344 103.925781 L 222.777344 108.097656 L 151.996094 108.097656 Z M 239.207031 266.78125 C 238.359375 274.207031 232.085938 279.808594 224.613281 279.808594 L 150.160156 279.808594 C 142.6875 279.808594 136.414062 274.207031 135.570312 266.78125 L 121.402344 142.441406 L 253.375 142.441406 Z M 265.875 128.558594 C 265.875 131.242188 263.6875 133.429688 261 133.429688 L 113.769531 133.429688 C 111.082031 133.429688 108.898438 131.242188 108.898438 128.558594 L 108.898438 121.976562 C 108.898438 119.292969 111.082031 117.105469 113.769531 117.105469 L 260.996094 117.105469 C 263.683594 117.105469 265.871094 119.292969 265.871094 121.976562 L 265.871094 128.558594 Z M 265.875 128.558594 " fill-opacity="1" fill-rule="nonzero"/></g><path fill="#ffffff" d="M 187.382812 255.425781 C 189.871094 255.425781 191.886719 253.410156 191.886719 250.921875 L 191.886719 171.324219 C 191.886719 168.839844 189.871094 166.820312 187.382812 166.820312 C 184.898438 166.820312 182.878906 168.839844 182.878906 171.324219 L 182.878906 250.921875 C 182.878906 253.410156 184.898438 255.425781 187.382812 255.425781 Z M 187.382812 255.425781 " fill-opacity="1" fill-rule="nonzero"/><path fill="#ffffff" d="M 214.3125 255.21875 C 214.460938 255.234375 214.609375 255.238281 214.753906 255.238281 C 217.046875 255.238281 219.003906 253.5 219.230469 251.171875 L 226.945312 171.949219 C 227.1875 169.472656 225.375 167.269531 222.902344 167.027344 C 220.390625 166.773438 218.222656 168.597656 217.980469 171.070312 L 210.265625 250.296875 C 210.023438 252.773438 211.835938 254.976562 214.308594 255.21875 Z M 214.3125 255.21875 " fill-opacity="1" fill-rule="nonzero"/><path fill="#ffffff" d="M 160.015625 255.238281 C 160.160156 255.238281 160.308594 255.234375 160.457031 255.21875 C 162.933594 254.976562 164.742188 252.773438 164.5 250.296875 L 156.785156 171.070312 C 156.542969 168.597656 154.375 166.773438 151.863281 167.027344 C 149.390625 167.265625 147.578125 169.472656 147.820312 171.949219 L 155.535156 251.171875 C 155.761719 253.5 157.722656 255.238281 160.011719 255.238281 Z M 160.015625 255.238281 " fill-opacity="1" fill-rule="nonzero"/></svg>